<svg xmlns="http://www.w3.org/2000/svg" xmlns:xlink="http://www.w3.org/1999/xlink"><defs>
<filter id="filter0_d_1891_3" x="0" y="0" width="22" height="23" filterUnits="userSpaceOnUse" color-interpolation-filters="sRGB">
<feFlood flood-opacity="0" result="BackgroundImageFix"/>
<feColorMatrix in="SourceAlpha" type="matrix" values="0 0 0 0 0 0 0 0 0 0 0 0 0 0 0 0 0 0 127 0" result="hardAlpha"/>
<feOffset dy="2"/>
<feGaussianBlur stdDeviation="0.5"/>
<feColorMatrix type="matrix" values="0 0 0 0 0 0 0 0 0 0 0 0 0 0 0 0 0 0 0.15 0"/>
<feBlend mode="normal" in2="BackgroundImageFix" result="effect1_dropShadow_1891_3"/>
<feBlend mode="normal" in="SourceGraphic" in2="effect1_dropShadow_1891_3" result="shape"/>
</filter>
</defs><symbol id="cart-icon" viewBox="0 0 15 15">
<path d="M4.5 15C5.32843 15 6 14.3284 6 13.5C6 12.6716 5.32843 12 4.5 12C3.67157 12 3 12.6716 3 13.5C3 14.3284 3.67157 15 4.5 15Z" fill="#A6A6A6"/>
<path d="M12.5 15C13.3284 15 14 14.3284 14 13.5C14 12.6716 13.3284 12 12.5 12C11.6716 12 11 12.6716 11 13.5C11 14.3284 11.6716 15 12.5 15Z" fill="#A6A6A6"/>
<path d="M15 2H4.07L3.648 0H0V2H2.031L4.016 11H15V9H9.441L15 6.951V2Z" fill="#A6A6A6"/>
</symbol><symbol id="checkbox-checked" viewBox="0 0 26 23">
<g opacity="0.4">
<path d="M7.23738 7.48591L4.42688 10.3149L12.159 18.0979L25.9999 4.16591L23.1904 1.33691L12.159 12.4389L7.23738 7.48591Z" fill="#4D4D4D"/>
<path d="M20.8627 20C20.8627 20.542 20.4077 21 19.8692 21H2.98038C2.44193 21 1.98692 20.542 1.98692 20V3C1.98692 2.458 2.44193 2 2.98038 2H19.7778L21.3525 0.415C20.9034 0.146542 20.3915 0.00329969 19.8692 0H2.98038C1.34117 0 0 1.35 0 3V20C0 21.65 1.34117 23 2.98038 23H19.8692C21.5084 23 22.8496 21.65 22.8496 20V10.171L20.8627 12.171V20Z" fill="#4D4D4D"/>
</g>
</symbol><symbol id="checkbox-unchecked" viewBox="0 0 23 23">
<g opacity="0.4">
<path fill-rule="evenodd" clip-rule="evenodd" d="M3 0H20C21.65 0 23 1.35 23 3V20C23 21.65 21.65 23 20 23H3C1.35 23 0 21.65 0 20V3C0 1.35 1.35 0 3 0ZM21 3C21 2.458 20.542 2 20 2H3C2.458 2 2 2.458 2 3V20C2 20.542 2.458 21 3 21H20C20.542 21 21 20.542 21 20V3Z" fill="#4D4D4D"/>
</g>
</symbol><symbol id="facebook-icon" viewBox="0 0 12 22">
<path d="M12 4V0H8C5.79086 0 4 1.79086 4 4V8H0V12H4V22H8V12H12V8H8V4H12Z" fill="white"/>
</symbol><symbol id="instagram-icon" viewBox="0 0 21 21">
<path fill-rule="evenodd" clip-rule="evenodd" d="M3 0H18C19.65 0 21 1.35 21 3V18C21 19.65 19.65 21 18 21H3C1.35 21 0 19.65 0 18V3C0 1.35 1.35 0 3 0ZM14 10.5C14 8.57 12.43 7 10.5 7C8.57 7 7 8.57 7 10.5C7 12.43 8.57 14 10.5 14C12.43 14 14 12.43 14 10.5ZM3 18V9H4.181C4.0626 9.49127 4.00186 9.99467 4 10.5C4 14.0899 6.91015 17 10.5 17C14.0899 17 17 14.0899 17 10.5C16.9986 9.99464 16.9379 9.49118 16.819 9H18V18H3ZM14 7H18V3H14V7Z" fill="white"/>
</symbol><symbol id="range-slider-knob" viewBox="0 0 22 23">
<g filter="url(#filter0_d_1891_3)">
<circle cx="11" cy="10" r="10" fill="white"/>
</g>
<circle cx="11" cy="10" r="2" fill="#ABABAB"/>

</symbol><symbol id="vkontakte-icon" viewBox="0 0 27 15">
<path d="M16.138 11.51C17.094 11.201 18.318 13.55 19.621 14.449C20.599 15.13 21.348 14.983 21.348 14.983L24.821 14.933C24.821 14.933 26.636 14.821 25.778 13.379C25.707 13.259 25.275 12.31 23.193 10.357C21.016 8.31404 21.311 8.64504 23.932 5.11304C25.529 2.96004 26.168 1.64504 25.968 1.08504C25.776 0.546037 24.603 0.686037 24.603 0.686037L20.69 0.713037C20.309 0.714037 19.986 0.832037 19.839 1.22804C19.836 1.23204 19.218 2.89404 18.394 4.30704C16.653 7.29604 15.958 7.45504 15.67 7.26804C15.009 6.83504 15.176 5.53104 15.176 4.60404C15.176 1.70704 15.608 0.499037 14.33 0.187037C13.903 0.0830374 13.591 0.0150374 12.502 0.00503741C11.11 -0.0159626 9.92797 0.00503743 9.25797 0.334037C8.81297 0.557037 8.47197 1.04604 8.67897 1.07404C8.93897 1.10904 9.52197 1.23404 9.83397 1.66004C10.235 2.21204 10.223 3.44904 10.223 3.44904C10.223 3.44904 10.452 6.86004 9.68297 7.28304C9.15497 7.57304 8.43297 6.98104 6.87997 4.26704C6.08697 2.87904 5.48797 1.34504 5.48797 1.34504C5.48797 1.34504 5.37197 1.06004 5.16197 0.904037C4.91197 0.719037 4.56197 0.660037 4.56197 0.660037L0.84797 0.684037C0.84797 0.684037 0.28997 0.700037 0.0849697 0.946037C-0.0970303 1.16404 0.0699697 1.61404 0.0699697 1.61404C0.0699697 1.61404 2.97897 8.49504 6.27297 11.961C9.29297 15.143 12.725 14.932 12.725 14.932H14.28C14.28 14.932 14.749 14.878 14.989 14.62C15.213 14.38 15.203 13.929 15.203 13.929C15.203 13.929 15.172 11.82 16.138 11.51Z" fill="white"/>
</symbol></svg>